<?xml version="1.0" encoding="iso-8859-1"?>
<!-- Generator: Adobe Illustrator 18.1.1, SVG Export Plug-In . SVG Version: 6.00 Build 0)  -->
<svg version="1.1" id="Capa_1" xmlns="http://www.w3.org/2000/svg" xmlns:xlink="http://www.w3.org/1999/xlink" x="0px" y="0px"
	 viewBox="0 0 90 90" style="enable-background:new 0 0 90 90;" xml:space="preserve">
<g id="_x37_7_Essential_Icons_74_">
	<path id="View" d="M45,29c-8.8,0-16,7.2-16,16s7.2,16,16,16s16-7.2,16-16S53.8,29,45,29z M45,57c-6.6,0-12-5.4-12-12s5.4-12,12-12
		s12,5.4,12,12S51.6,57,45,57z M89.4,43.6l-8.6-8.7C71.3,25.3,58.6,20,45,20S18.7,25.3,9.2,34.9l-8.6,8.7c-0.8,0.8-0.8,2,0,2.8
		l8.6,8.7C18.7,64.7,31.4,70,45,70s26.3-5.3,35.8-14.9l8.6-8.7C90.2,45.6,90.2,44.4,89.4,43.6z M78,52.3C69.2,61.1,57.5,66,45,66
		s-24.2-4.9-33-13.7L4.8,45l7.2-7.3C20.8,28.9,32.5,24,45,24s24.2,4.9,33,13.7l7.2,7.3L78,52.3z"/>
</g>
<g>
</g>
<g>
</g>
<g>
</g>
<g>
</g>
<g>
</g>
<g>
</g>
<g>
</g>
<g>
</g>
<g>
</g>
<g>
</g>
<g>
</g>
<g>
</g>
<g>
</g>
<g>
</g>
<g>
</g>
</svg>
